<svg width="208" height="105" viewBox="0 0 208 105" fill="none" xmlns="http://www.w3.org/2000/svg">
<g id="Group 314">
<g id="Vector">
<path d="M207.034 103.941C207.034 76.6083 196.176 50.3951 176.849 31.0679C157.522 11.7407 131.309 0.882815 103.976 0.882813C76.643 0.88281 50.4297 11.7407 31.1026 31.0679C11.7754 50.395 0.917485 76.6083 0.917481 103.941H26.682C26.682 83.4415 34.8255 63.7815 49.3208 49.2862C63.8162 34.7908 83.4762 26.6474 103.976 26.6474C124.475 26.6474 144.135 34.7908 158.631 49.2862C173.126 63.7816 181.269 83.4415 181.269 103.941H207.034Z" fill="#1D4ED8"/>
<path d="M54.0627 13.7762C37.9143 22.7156 24.463 35.8278 15.1144 51.7428C5.7657 67.6578 0.862798 85.7914 0.917941 104.249L26.6824 104.172C26.641 90.3288 30.3182 76.7286 37.3297 64.7924C44.3412 52.8561 54.4297 43.022 66.541 36.3174L54.0627 13.7762Z" fill="#BAE6FD"/>
<path d="M155.505 14.69C139.877 5.6673 122.154 0.906183 104.109 0.882898C86.0633 0.859614 68.3281 5.57497 52.6771 14.5573L65.5018 36.9033C77.24 30.1665 90.5414 26.63 104.075 26.6474C117.61 26.6649 130.902 30.2357 142.623 37.0028L155.505 14.69Z" fill="#60A5FA"/>
</g>
<g id="Vector_2">
<path d="M26.6494 95.031L113.413 92.3473L113.099 102.879L26.6494 95.031Z" fill="#23386A"/>
<path d="M111.519 91.8335C114.68 91.9277 117.166 94.5664 117.071 97.7271C116.977 100.888 114.339 103.374 111.178 103.279C108.017 103.185 105.531 100.546 105.626 97.3858C105.72 94.2251 108.358 91.7393 111.519 91.8335Z" fill="#23386A"/>
</g>
</g>
</svg>
